<?xml version="1.0" encoding="UTF-8"?>
<svg xmlns="http://www.w3.org/2000/svg" xmlns:xlink="http://www.w3.org/1999/xlink" width="375pt" height="374.999991pt" viewBox="0 0 375 374.999991" version="1.2">
<defs>
<clipPath id="clip1">
  <path d="M 44 167.238281 L 281.441406 167.238281 L 281.441406 371.765625 L 44 371.765625 Z M 44 167.238281 "/>
</clipPath>
<clipPath id="clip2">
  <path d="M 103 186.316406 L 374.789062 186.316406 L 374.789062 346.933594 L 103 346.933594 Z M 103 186.316406 "/>
</clipPath>
<clipPath id="clip3">
  <path d="M 93 3.515625 L 331 3.515625 L 331 208 L 93 208 Z M 93 3.515625 "/>
</clipPath>
</defs>
<g id="surface1">
<path style=" stroke:none;fill-rule:nonzero;fill:rgb(50.19989%,79.998779%,15.689087%);fill-opacity:1;" d="M 29.046875 192.613281 C 34.605469 154.34375 53.410156 119.003906 82 93.113281 C 97.867188 78.742188 116.390625 67.566406 136.402344 60.199219 C 74.214844 74.296875 24.902344 126.28125 15.558594 190.648438 C 5.996094 256.507812 38.113281 319.558594 94.929688 350.625 C 77.574219 337.78125 62.773438 321.621094 51.511719 303.09375 C 31.46875 270.121094 23.492188 230.882812 29.046875 192.613281 "/>
<g clip-path="url(#clip1)" clip-rule="nonzero">
<path style=" stroke:none;fill-rule:nonzero;fill:rgb(50.19989%,79.998779%,15.689087%);fill-opacity:1;" d="M 112.546875 327.632812 C 82.234375 303.679688 61.082031 269.703125 52.984375 231.957031 C 48.4375 210.75 48.082031 188.824219 51.859375 167.546875 C 31.953125 229.234375 51.9375 297.128906 104.105469 338.351562 C 132.003906 360.398438 165.492188 372.050781 200.949219 372.050781 C 229.273438 372.050781 257.144531 364.28125 281.300781 349.878906 C 260.582031 358.789062 238.167969 363.433594 215.4375 363.433594 C 177.765625 363.433594 142.1875 351.054688 112.546875 327.632812 "/>
</g>
<g clip-path="url(#clip2)" clip-rule="nonzero">
<path style=" stroke:none;fill-rule:nonzero;fill:rgb(50.19989%,79.998779%,15.689087%);fill-opacity:1;" d="M 374.742188 186.574219 C 372.316406 208.046875 365.742188 228.964844 355.351562 247.992188 C 336.859375 281.867188 306.917969 308.402344 271.046875 322.71875 C 251.304688 330.601562 230.613281 334.59375 209.542969 334.59375 C 182.203125 334.59375 154.964844 327.71875 130.769531 314.710938 C 120.875 309.386719 111.589844 303.109375 103.003906 295.949219 C 132.46875 327.972656 174.179688 346.582031 218.199219 346.582031 C 238.027344 346.582031 257.507812 342.820312 276.09375 335.402344 C 337.824219 310.769531 376.285156 251.382812 374.742188 186.574219 "/>
</g>
<path style=" stroke:none;fill-rule:nonzero;fill:rgb(50.19989%,79.998779%,15.689087%);fill-opacity:1;" d="M 325.566406 75.8125 C 344.398438 108.484375 351.484375 145.535156 346.050781 182.953125 C 340.496094 221.222656 321.691406 256.5625 293.101562 282.453125 C 277.039062 297 258.253906 308.269531 237.96875 315.632812 C 301.265625 302.054688 349.980469 250.773438 359.539062 184.917969 C 364.65625 149.695312 357.988281 114.820312 340.257812 84.066406 C 326.097656 59.5 305.445312 39.214844 280.910156 25.464844 C 298.972656 38.976562 314.199219 56.097656 325.566406 75.8125 "/>
<g clip-path="url(#clip3)" clip-rule="nonzero">
<path style=" stroke:none;fill-rule:nonzero;fill:rgb(50.19989%,79.998779%,15.689087%);fill-opacity:1;" d="M 262.550781 47.933594 C 279.238281 61.117188 293.039062 77.066406 303.574219 95.34375 C 317.242188 119.054688 324.914062 146.121094 325.765625 173.609375 C 326.113281 184.855469 325.328125 196.046875 323.425781 207.070312 C 336.382812 165.503906 331.621094 120.023438 309.609375 81.839844 C 299.695312 64.640625 286.703125 49.628906 270.996094 37.214844 C 243.097656 15.167969 209.582031 3.515625 174.078125 3.515625 C 145.550781 3.515625 117.546875 11.363281 93.355469 25.90625 C 113.03125 17.378906 134.273438 12.675781 155.785156 12.179688 C 157.058594 12.148438 158.332031 12.132812 159.601562 12.132812 C 196.773438 12.132812 233.335938 24.847656 262.550781 47.933594 "/>
</g>
<path style=" stroke:none;fill-rule:nonzero;fill:rgb(50.19989%,79.998779%,15.689087%);fill-opacity:1;" d="M 165.804688 40.941406 C 183.152344 40.941406 200.28125 43.632812 216.707031 48.9375 C 237.238281 55.570312 256.300781 66.171875 272.765625 80.003906 C 243.371094 47.699219 201.449219 28.914062 157.039062 28.914062 C 137.191406 28.914062 117.714844 32.671875 99.148438 40.082031 C 66.132812 53.257812 39.3125 76.476562 21.582031 107.230469 C 7.421875 131.796875 0.207031 159.855469 0.582031 188.007812 C 3.234375 165.582031 10.425781 143.820312 21.792969 124.105469 C 40.628906 91.429688 69.121094 66.757812 104.195312 52.761719 C 123.847656 44.917969 144.574219 40.941406 165.804688 40.941406 "/>
<path style=" stroke:none;fill-rule:nonzero;fill:rgb(50.19989%,79.998779%,15.689087%);fill-opacity:1;" d="M 184.058594 218.625 C 184.058594 191.078125 187.648438 168.75 187.648438 168.75 C 187.648438 168.75 191.234375 191.078125 191.234375 218.625 C 191.234375 221.53125 191.191406 224.378906 191.121094 227.152344 C 198.960938 218.734375 217.359375 196.152344 217.359375 169.601562 C 217.359375 135.871094 187.648438 98.40625 187.648438 98.40625 C 187.648438 98.40625 157.933594 135.871094 157.933594 169.601562 C 157.933594 196.152344 176.335938 218.734375 184.171875 227.152344 C 184.101562 224.378906 184.058594 221.53125 184.058594 218.625 "/>
<path style=" stroke:none;fill-rule:nonzero;fill:rgb(50.19989%,79.998779%,15.689087%);fill-opacity:1;" d="M 209.15625 260.363281 C 229.59375 241.929688 248.5625 229.660156 248.5625 229.660156 C 248.5625 229.660156 234.398438 247.273438 213.957031 265.703125 C 211.800781 267.648438 209.660156 269.523438 207.554688 271.324219 C 219.042969 271.527344 248.113281 270.109375 267.8125 252.34375 C 292.839844 229.773438 300.761719 182.589844 300.761719 182.589844 C 300.761719 182.589844 253.078125 185.546875 228.050781 208.117188 C 208.351562 225.882812 203.90625 254.6875 202.90625 266.152344 C 204.914062 264.242188 207 262.308594 209.15625 260.363281 "/>
<path style=" stroke:none;fill-rule:nonzero;fill:rgb(50.19989%,79.998779%,15.689087%);fill-opacity:1;" d="M 166.136719 260.363281 C 145.695312 241.929688 126.726562 229.660156 126.726562 229.660156 C 126.726562 229.660156 140.894531 247.273438 161.335938 265.703125 C 163.492188 267.648438 165.632812 269.523438 167.738281 271.324219 C 156.246094 271.527344 127.179688 270.109375 107.480469 252.34375 C 82.453125 229.773438 74.53125 182.589844 74.53125 182.589844 C 74.53125 182.589844 122.210938 185.546875 147.242188 208.117188 C 166.941406 225.882812 171.386719 254.6875 172.386719 266.152344 C 170.378906 264.242188 168.292969 262.308594 166.136719 260.363281 "/>
</g>
</svg>
